<svg height="512" viewBox="0 0 512 512" width="512" xmlns="http://www.w3.org/2000/svg"><g id="filled_outline" data-name="filled outline"><path d="m275 208h-214a37 37 0 0 0 -37 37v150a37 37 0 0 0 37 37h11l56 40v-40h147a37 37 0 0 0 37-37v-150a37 37 0 0 0 -37-37z" fill="#fbb540"/><path d="m488 184a144 144 0 1 0 -144 144 145.5 145.5 0 0 0 16-.889v32.889l61.3-54.491a143.888 143.888 0 0 0 66.7-121.509z" fill="#0bafea"/><path d="m344 253.5a8 8 0 0 1 -8-8v-1.893a50.576 50.576 0 0 1 28.512-45.695 48.008 48.008 0 1 0 -68.512-43.412 8 8 0 0 1 -16 0 64 64 0 0 1 67.013-63.931c32.656 1.5 59.415 28.261 60.918 60.918a63.935 63.935 0 0 1 -36.574 60.886 34.512 34.512 0 0 0 -19.357 31.234v1.893a8 8 0 0 1 -8 8z" fill="#0276b4"/><circle cx="344" cy="278" fill="#0276b4" r="12"/><g fill="#ea9d2d"><circle cx="120" cy="305.969" r="16"/><circle cx="200" cy="305.969" r="16"/><path d="m160 376a72.292 72.292 0 0 1 -45-15.784 8 8 0 1 1 10-12.494 55.722 55.722 0 0 0 70 0 8 8 0 0 1 10 12.494 72.292 72.292 0 0 1 -45 15.784z"/></g><path d="m344 32c-83.813 0-152 68.187-152 152a153.231 153.231 0 0 0 .841 16h-131.841a45.051 45.051 0 0 0 -45 45v150a45.051 45.051 0 0 0 45 45h8.437l53.914 38.51a8 8 0 0 0 12.649-6.51v-32h139a45.051 45.051 0 0 0 45-45v-60.9a152.546 152.546 0 0 0 24 1.9c2.647 0 5.32-.071 8-.213v24.213a8 8 0 0 0 13.314 5.979l60.833-54.073a151.436 151.436 0 0 0 69.853-127.906c0-83.813-68.187-152-152-152zm-40 363a29.033 29.033 0 0 1 -29 29h-147a8 8 0 0 0 -8 8v24.455l-43.351-30.965a8 8 0 0 0 -4.649-1.49h-11a29.033 29.033 0 0 1 -29-29v-150a29.033 29.033 0 0 1 29-29h134.4a152.517 152.517 0 0 0 108.6 114.648zm113-96.237a8.12 8.12 0 0 0 -1.014.766l-47.986 42.656v-15.074a8 8 0 0 0 -8-8 8.118 8.118 0 0 0 -.879.048 138.2 138.2 0 0 1 -15.121.841c-74.99 0-136-61.009-136-136s61.01-136 136-136 136 61.009 136 136a135.509 135.509 0 0 1 -63 114.763z"/><path d="m347.013 90.569a64 64 0 0 0 -67.013 63.931 8 8 0 0 0 16 0 48 48 0 0 1 50.277-47.947 48.01 48.01 0 0 1 18.235 91.359 50.576 50.576 0 0 0 -28.512 45.695v1.893a8 8 0 0 0 16 0v-1.893a34.512 34.512 0 0 1 19.357-31.234 63.935 63.935 0 0 0 36.574-60.886c-1.503-32.657-28.262-59.415-60.918-60.918z"/><circle cx="344" cy="278" r="12"/><circle cx="120" cy="305.969" r="16"/><circle cx="200" cy="305.969" r="16"/><path d="m195 347.722a55.722 55.722 0 0 1 -70 0 8 8 0 1 0 -10 12.494 72.034 72.034 0 0 0 90 0 8 8 0 0 0 -10-12.494z"/></g></svg>